{"title":"Jack.Reacher.2012.R6.WEBRip.XVID.AC3.HQ.WeeklyMovies","uid":8239649,"size":1481726582,"categoryP":"video","categoryS":"movies","magnet":"?xt=urn:btih:cc7fb261549e849aad22c8e19c1877de63fd8c1b&amp;dn=Jack.Reacher.2012.R6.WEBRip.XVID.AC3.HQ.WeeklyMovies&amp;tr=udp%3A%2F%2Ftracker.openbittorrent.com%3A80&amp;tr=udp%3A%2F%2Fopen.demonii.com%3A1337&amp;tr=udp%3A%2F%2Ftracker.coppersurfer.tk%3A6969&amp;tr=udp%3A%2F%2Fexodus.desync.com%3A6969","seeders":3,"leechers":0,"uploader":"cysto","files":-1,"time":1362937274,"description":"General\nComplete name                  : Jack.Reacher.2012.R6.WEBRip.XVID.AC3.HQ.avi\nFormat                         : AVI\nFormat/Info                    : Audio Video Interleave\nFile size                      : 1.37 GiB\nDuration                       : 2h 10mn\nOverall bit rate               : 1 506 Kbps\nWriting application            : Nandub v1.0rc2\nWriting library                : Nandub build 1853/release\n\nVideo\nID                             : 0\nFormat                         : MPEG-4 Visual\nFormat profile                 : Advanced Simple@L5\nFormat settings, BVOP          : 2\nFormat settings, QPel          : Yes\nFormat settings, GMC           : No warppoints\nFormat settings, Matrix        : Default (H.263)\nMuxing mode                    : Packed bitstream\nCodec ID                       : XVID\nCodec ID/Hint                  : XviD\nDuration                       : 2h 10mn\nBit rate                       : 1 238 Kbps\nWidth                          : 720 pixels\nHeight                         : 256 pixels\nDisplay aspect ratio           : 2.813\nFrame rate                     : 29.970 fps\nColor space                    : YUV\nChroma subsampling             : 4:2:0\nBit depth                      : 8 bits\nScan type                      : Progressive\nCompression mode               : Lossy\nBits/(Pixel*Frame)             : 0.224\nStream size                    : 1.13 GiB (82%)\nWriting library                : XviD 1.2.1 (UTC 2008-12-04)\n\nAudio\nID                             : 1\nFormat                         : AC-3\nFormat/Info                    : Audio Coding 3\nCodec ID                       : 2000\nDuration                       : 2h 10mn\nBit rate mode                  : Constant\nBit rate                       : 256 Kbps\nChannel(s)                     : 2 channels\nSampling rate                  : 48.0 KHz\nCompression mode               : Lossy\nStream size                    : 239 MiB (17%)\nAlignment                      : Split accross interleaves\nInterleave, duration           : 33 ms (1.00 video frame)\nInterleave, preload duration   : 500 ms\n\n\nPlot..:\nA homicide investigator digs deeper into a case involving\na trained military sniper who shot five random victims.\n\n\nCast..:\nTom Cruise       ...    Reacher\nRosamund Pike    ...    Helen\nRichard Jenkins  ...    Rodin","torrent":{"xt":"urn:btih:cc7fb261549e849aad22c8e19c1877de63fd8c1b","amp;dn":"Jack.Reacher.2012.R6.WEBRip.XVID.AC3.HQ.WeeklyMovies","amp;tr":["udp%3A%2F%2Ftracker.openbittorrent.com%3A80","udp%3A%2F%2Fopen.demonii.com%3A1337","udp%3A%2F%2Ftracker.coppersurfer.tk%3A6969","udp%3A%2F%2Fexodus.desync.com%3A6969"],"infoHash":"cc7fb261549e849aad22c8e19c1877de63fd8c1b","infoHashBuffer":{"type":"Buffer","data":[204,127,178,97,84,158,132,154,173,34,200,225,156,24,119,222,99,253,140,27]},"announce":[],"urlList":[]}}